<?xml version="1.0" standalone="no"?>
<!DOCTYPE svg PUBLIC "-//W3C//DTD SVG 20010904//EN"
 "http://www.w3.org/TR/2001/REC-SVG-20010904/DTD/svg10.dtd">
<svg version="1.0" xmlns="http://www.w3.org/2000/svg"
 width="787.000000pt" height="1132.000000pt" viewBox="0 0 787.000000 1132.000000"
 preserveAspectRatio="xMidYMid meet">
<metadata>
Created by Mahesh Bhatter
</metadata>
<g transform="translate(0.000000,1132.000000) scale(0.100000,-0.100000)"
fill="#000000" stroke="none">
<path d="M3720 7420 c-109 -23 -167 -43 -260 -90 -358 -181 -615 -570 -671
-1016 -17 -137 -6 -421 21 -547 25 -117 76 -263 130 -372 43 -86 149 -247 165
-251 9 -3 382 440 653 774 274 338 453 652 518 909 42 168 49 444 12 522 -35
73 -365 115 -568 71z"/>
<path d="M4707 7007 c-15 -177 -64 -343 -161 -542 -134 -279 -293 -503 -750
-1060 -153 -187 -283 -346 -289 -352 -7 -10 117 -13 617 -13 l626 0 39 36 c83
75 212 304 265 472 69 220 91 521 53 732 -54 298 -176 563 -344 750 l-50 54
-6 -77z"/>
<path d="M3490 4645 c0 -3 71 -97 157 -208 86 -111 175 -226 197 -254 23 -29
45 -53 51 -53 9 0 222 223 433 451 l64 69 -451 0 c-248 0 -451 -2 -451 -5z"/>
</g>
</svg>
