
<svg width="55" height="66" viewBox="0 0 55 66" fill="none" xmlns="http://www.w3.org/2000/svg">
<path d="M22.0299 0.357949C19.473 0.816845 18.1124 1.21588 15.9308 2.15363C7.53276 5.76494 1.50401 13.5263 0.190353 22.4249C-0.208436 25.1583 0.0496041 30.8246 0.682974 33.3386C1.26943 35.673 2.46579 38.586 3.73253 40.7607C4.74124 42.4766 7.2278 45.6889 7.60313 45.7687C7.81425 45.8285 16.5641 36.9898 22.9213 30.3258C29.3488 23.5821 33.5479 17.3171 35.0726 12.1895C36.0579 8.83755 36.2221 3.3308 35.3541 1.77454C34.5331 0.318047 26.7919 -0.519938 22.0299 0.357949Z" fill="white"/>
<path d="M45.1831 8.59812C44.8312 12.1296 43.6818 15.4417 41.4064 19.4121C38.263 24.9787 34.5331 29.448 23.8127 40.5612C20.2236 44.2922 17.1741 47.4646 17.0333 47.5843C16.8691 47.7838 19.7779 47.8437 31.507 47.8437H46.1918L47.1067 47.1254C49.0537 45.629 52.0798 41.06 53.3231 37.7081C54.9417 33.3186 55.4578 27.3131 54.5664 23.1032C53.2996 17.1575 50.4377 11.8703 46.4968 8.13923L45.3239 7.06182L45.1831 8.59812Z" fill="white"/>
<path d="M16.6345 55.7247C16.6345 55.7846 18.3001 57.6601 20.3175 59.8747C22.3349 62.0894 24.4226 64.3839 24.9387 64.9425C25.4782 65.5212 25.9943 66 26.1351 66C26.3462 66 31.3428 61.5507 36.2925 57.0017L37.7938 55.625H27.2142C21.3965 55.625 16.6345 55.6649 16.6345 55.7247Z" fill="white"/>
</svg>
